<svg xmlns="http://www.w3.org/2000/svg" width="73.9" height="88.804" viewBox="0 0 73.9 88.804"><path d="M72.839,13.551a30.29,30.29,0,0,1,3.167,2.886A35.617,35.617,0,0,1,86.95,42.654,35.308,35.308,0,0,1,76.006,68.731a3.514,3.514,0,0,0-.352.668,2.707,2.707,0,0,0-.774.7L53.977,92.1q-4.047,4.609-7.988,0L24.346,69.223l-.352-.492A35.308,35.308,0,0,1,13.05,42.654,35.617,35.617,0,0,1,23.994,16.437a26.892,26.892,0,0,1,3.237-2.886A34.858,34.858,0,0,1,50.07,5.6,34.938,34.938,0,0,1,72.839,13.551Zm-8.657,8.622a6.575,6.575,0,0,1,1.9,4.821q-.035,8.656,0,24.563a9.307,9.307,0,0,1-1.126,4.751,7.5,7.5,0,0,1-2.71,2.463A2,2,0,0,1,62.6,59.9v2.6a2.292,2.292,0,0,1-1.056,1.9,3.736,3.736,0,0,1-2.463.844,4.126,4.126,0,0,1-2.6-.844,2.362,2.362,0,0,1-.95-1.9V59.9a1.914,1.914,0,0,1,.07-.528H44.827a1.914,1.914,0,0,1,.07.528v2.6a2.273,2.273,0,0,1-1.091,1.9,3.74,3.74,0,0,1-2.463.844,3.877,3.877,0,0,1-2.5-.844,2.311,2.311,0,0,1-1.021-1.9V59.9a2.093,2.093,0,0,1,.211-.95,8.48,8.48,0,0,1-2.991-2.569,6.872,6.872,0,0,1-1.126-3.906q0-17.137.035-25.724a6.783,6.783,0,0,1,2.006-5,7.374,7.374,0,0,1,5.032-1.971h8.938q5.7.071,9.149,0A6.479,6.479,0,0,1,64.182,22.173Zm-3.027,5a3.175,3.175,0,0,0-2.041-.7q-9.185-.071-18.229,0a3.179,3.179,0,0,0-2.111.7,2.062,2.062,0,0,0-.95,1.619q-.071.844-.07,1.689,0,.949.07,2.041v.669a1.916,1.916,0,0,0,1.021,1.689,3.186,3.186,0,0,0,1.83.633H59.5a3.686,3.686,0,0,0,1.864-.7,2.935,2.935,0,0,0,.81-1.2,3.071,3.071,0,0,0,.07-.669v-.317q-.071-1.655-.1-3.835A2.172,2.172,0,0,0,61.155,27.17Zm20.9,15.378a30.86,30.86,0,0,0-9.431-22.627,30.946,30.946,0,0,0-22.7-9.431A30.863,30.863,0,0,0,27.3,19.921a30.862,30.862,0,0,0-9.431,22.627A30.862,30.862,0,0,0,27.3,65.175,30.859,30.859,0,0,0,49.93,74.606a30.944,30.944,0,0,0,22.7-9.431A30.859,30.859,0,0,0,82.059,42.548Zm-20.9,12.141a2.7,2.7,0,0,0,.915-2.217,3.058,3.058,0,0,0-.915-2.252,3.234,3.234,0,0,0-2.217-.774,3,3,0,0,0-2.217.844,3.161,3.161,0,0,0-.88,2.217,3.24,3.24,0,0,0,.88,2.182,3.04,3.04,0,0,0,2.217.95A2.894,2.894,0,0,0,61.155,54.689Zm-17.1-2.182a2.963,2.963,0,0,0-.915-2.288,3.284,3.284,0,0,0-2.252-.774,3.364,3.364,0,0,0-2.252.844,3.314,3.314,0,0,0-.81,2.217,2.924,2.924,0,0,0,.95,2.182,2.714,2.714,0,0,0,2.217.95,3.19,3.19,0,0,0,3.062-3.131Z" transform="translate(-13.05 -5.598)" fill="#1c5392" fill-rule="evenodd"/></svg>