<svg xmlns="http://www.w3.org/2000/svg" width="73.141" height="88.804" viewBox="0 0 73.141 88.804"><g transform="translate(-13383 544)"><path d="M45,36a1,1,0,0,0-1,1v5a1.993,1.993,0,0,1-1,1.722V37a1,1,0,0,0-2,0v6.722a2.014,2.014,0,0,1-.413-.309A1.983,1.983,0,0,1,40,42V37a1,1,0,0,0-2,0v5a3.966,3.966,0,0,0,3,3.858V57a1,1,0,0,0,2,0V45.858A4,4,0,0,0,46,42V37A1,1,0,0,0,45,36Z" transform="translate(13365.729 -551.609)" fill="#1c5392"/><path d="M52,35c-2.243,0-4,2.636-4,6a8.816,8.816,0,0,0,1.867,4.681A5.876,5.876,0,0,1,51,48v9a1,1,0,0,0,2,0V48a5.734,5.734,0,0,1,1.149-2.368A8.666,8.666,0,0,0,56,41C56,37.636,54.243,35,52,35Z" transform="translate(13370.531 -552.004)" fill="#1c5392"/><path d="M59.416,35.1a1,1,0,0,0-1.426.9V57a1,1,0,0,0,2,0V49.737A3.554,3.554,0,0,0,61,48.995c1.4-1.439,2.067-4.136,1.989-8.015A6.7,6.7,0,0,0,59.416,35.1Z" transform="translate(13374.289 -552.004)" fill="#1c5392"/><path d="M60.567,19A36.082,36.082,0,0,0,34.718,29.914,36.476,36.476,0,0,0,24,54.808,38.312,38.312,0,0,0,35.252,82.022L60.567,107.8,85.882,82.022A38.312,38.312,0,0,0,97.133,54.808,36.476,36.476,0,0,0,86.417,29.914,36.082,36.082,0,0,0,60.567,19Zm0,65.887c-15.541,0-28.128-12.819-28.128-28.646S45.027,27.594,60.567,27.594,88.7,40.413,88.7,56.24,76.108,84.887,60.567,84.887Z" transform="translate(13359.003 -563)" fill="#1c5392"/></g></svg>