<svg xmlns="http://www.w3.org/2000/svg" width="99.039" height="88.804" viewBox="0 0 99.039 88.804"><path d="M96.925,8.6a21.8,21.8,0,0,0-4.757-3.013c-.159-.159-.317-.159-.476-.317A6.64,6.64,0,0,0,88.361,4a2.679,2.679,0,0,0-1.586.476,4.115,4.115,0,0,0-1.9,3.33,3.523,3.523,0,0,0,2.062,2.537,3.732,3.732,0,0,0,1.269.317,3.2,3.2,0,0,0,1.744-.476,3.732,3.732,0,0,1,1.269-.317c1.11,0,2.379,1.427,3.489,3.806,1.427,3.33-.159,7.295-1.586,10.783l-.951,2.379c-1.269,3.33-2.537,6.819-3.806,10.149a3.049,3.049,0,0,0-1.744,2.379c-1.11,7.136-4.757,7.77-5.867,7.77h-.317c-1.744,0-3.172-1.269-4.282-3.489l-.476-.793a14.235,14.235,0,0,1-1.11-3.489A2.793,2.793,0,0,0,73.138,37.3a1.2,1.2,0,0,0-.317-.634c-1.744-4.916-4.123-11.418-6.185-17.919a7.247,7.247,0,0,1,2.22-7.929c.634-.476,1.269-.951,1.9-.793.317,0,.476.159.793.317a4.654,4.654,0,0,0,1.586.476H73.3A3.565,3.565,0,0,0,77.1,7.489a3.227,3.227,0,0,0-.951-2.379,2.781,2.781,0,0,0-2.537-.793,6.649,6.649,0,0,0-2.537.634l-1.427.476A10.078,10.078,0,0,0,63.306,10.5a12.879,12.879,0,0,0-.951,9.99c1.9,5.867,3.964,12.052,6.026,18.4a3.15,3.15,0,0,0-.159,1.744,25.105,25.105,0,0,0,1.427,4.916,14.649,14.649,0,0,0,5.392,6.66l1.9.951h.634a23.658,23.658,0,0,1-.317,3.33,32.63,32.63,0,0,1-7.136,17.285,35.285,35.285,0,0,1-32.509,13,35.34,35.34,0,0,1-10.783-3.172l-1.586-.793-.951.159-1.586.317a19.368,19.368,0,0,1-4.123.951,4.391,4.391,0,0,1-1.427.159l-.793.159A24.832,24.832,0,0,1,8.755,84.4H8.438c-.476,0-.793-.159-1.11-.159l4.44-4.44,1.11-1.11,2.7-3.172L13.2,72.189A35.726,35.726,0,0,1,6.852,46.658a34.516,34.516,0,0,1,7.612-17.6,35.178,35.178,0,0,1,24.1-13.162,7.111,7.111,0,0,0,6.185,3.964,6.819,6.819,0,0,0,0-13.638,7.029,7.029,0,0,0-6.343,4.123A40.317,40.317,0,0,0,9.865,25.725,41.62,41.62,0,0,0,8.279,75.519l-.476.476L2.729,80.91A5.186,5.186,0,0,0,1.3,85.985c.793,2.22,2.854,3.647,6.5,4.123h.317a34.9,34.9,0,0,0,9.039.159l.634-.159c.476,0,1.11-.159,1.744-.159,1.586-.317,3.013-.634,4.6-1.11h0a37.151,37.151,0,0,0,12.369,3.647,37.39,37.39,0,0,0,5.867.317A41.259,41.259,0,0,0,74.565,77.263a40.756,40.756,0,0,0,8.722-20.457,36.082,36.082,0,0,0,.317-4.123,10.458,10.458,0,0,0,5.709-3.964c1.9-2.379,2.854-5.55,3.489-8.563V38.887c.159-.634.476-1.269.634-2.062.793-2.379,1.744-4.916,2.537-7.295.951-2.854,2.062-5.709,3.013-8.722a13.019,13.019,0,0,0,.793-4.44A9.838,9.838,0,0,0,96.925,8.6Z" transform="translate(-0.755 -4)" fill="#1c5392"/></svg>