<svg xmlns="http://www.w3.org/2000/svg" width="17.627" height="18.837" viewBox="0 0 17.627 18.837"><path d="M22.2,8.178,19.11,8a.646.646,0,0,0-.594.416c-2.553,9.2,7.3,20.008,16.683,18.227a.639.639,0,0,0,.475-.594l.059-3.087c0-.416-.119-.475-.416-.594l-4.453-1.544a.786.786,0,0,0-.653.178L28.669,22.13c-2.731-.356-6.115-4.037-6.234-6.828l1.247-1.425a.811.811,0,0,0,.237-.653L22.791,8.653C22.732,8.416,22.613,8.237,22.2,8.178Z" transform="translate(-18.107 -8)" fill="#1c5392" fill-rule="evenodd"/></svg>