<svg xmlns="http://www.w3.org/2000/svg" width="53.28" height="53" viewBox="0 0 53.28 53"><g transform="translate(-2.5 -2.7)"><g transform="translate(2.5 2.7)"><path d="M50.631,83.6H38.741a.863.863,0,0,0-.841.841v2.8a.863.863,0,0,0,.841.841h2.3a3.67,3.67,0,0,0,3.589,3.141,3.585,3.585,0,0,0,3.589-3.141h2.3a.863.863,0,0,0,.841-.841v-2.8A.71.71,0,0,0,50.631,83.6Z" transform="translate(-18.046 -38.228)" fill="#1c5392"/><path d="M48.375,12.234a2.07,2.07,0,0,0,2.075-2.075V4.775A2.07,2.07,0,0,0,48.375,2.7,2.036,2.036,0,0,0,46.3,4.775v5.384A2.107,2.107,0,0,0,48.375,12.234Z" transform="translate(-21.735 -2.7)" fill="#1c5392"/><path d="M22.669,20.053l-3.814-3.814a2.062,2.062,0,1,0-2.916,2.916l3.814,3.814a2.032,2.032,0,0,0,2.916,0A2.1,2.1,0,0,0,22.669,20.053Z" transform="translate(-8.143 -8.387)" fill="#1c5392"/><path d="M9.959,46.6H4.575A2.07,2.07,0,0,0,2.5,48.675,2.036,2.036,0,0,0,4.575,50.75H9.959a2.075,2.075,0,0,0,0-4.15Z" transform="translate(-2.5 -21.979)" fill="#1c5392"/><path d="M87.959,46.6H82.575A2.07,2.07,0,0,0,80.5,48.675a2.036,2.036,0,0,0,2.075,2.075h5.384a2.07,2.07,0,0,0,2.075-2.075A2.036,2.036,0,0,0,87.959,46.6Z" transform="translate(-36.754 -21.979)" fill="#1c5392"/><path d="M77.869,16.239a2.1,2.1,0,0,0-2.916,0l-3.814,3.814a2.1,2.1,0,0,0,0,2.916,2.032,2.032,0,0,0,2.916,0l3.814-3.814A2.1,2.1,0,0,0,77.869,16.239Z" transform="translate(-32.384 -8.387)" fill="#1c5392"/><path d="M36.418,27.01a13.118,13.118,0,0,0-9.647,9.534A13.261,13.261,0,0,0,31.539,50.4a3.627,3.627,0,0,1,1.29,2.86v1.907a1.15,1.15,0,0,0,1.178,1.178h4.375V43.5l-4.375-4.6a1.19,1.19,0,0,1,1.739-1.626l3.814,4.038,3.814-4.038A1.19,1.19,0,0,1,45.111,38.9l-4.375,4.6V56.286h4.487A1.15,1.15,0,0,0,46.4,55.108V53.089a3.483,3.483,0,0,1,1.29-2.748A13.22,13.22,0,0,0,36.418,27.01Z" transform="translate(-12.975 -13.213)" fill="#1c5392"/></g></g></svg>