<svg xmlns="http://www.w3.org/2000/svg" width="17.626" height="11.73" viewBox="0 0 17.626 11.73"><path d="M22.265,20.852,13.92,25.888,5.647,20.852c-.259-.143-.5-.227-.5-.5v-.4a.505.505,0,0,1,.5-.5H22.265a.505.505,0,0,1,.5.5v.4C22.783,20.616,22.574,20.683,22.265,20.852Z" transform="translate(-5.143 -19.446)" fill="#1c5392"/><path d="M22.77,33.05c0-.26-.2-.421-.5-.252l-8.345,5.036L5.647,32.8a.324.324,0,0,0-.5.254v8.307a.505.505,0,0,0,.5.5H22.266a.505.505,0,0,0,.5-.5" transform="translate(-5.144 -30.133)" fill="#1c5392"/></svg>