<svg xmlns="http://www.w3.org/2000/svg" width="24" height="19.507" viewBox="0 0 24 19.507"><path d="M23.953,4.57a10,10,0,0,1-2.825.775,4.958,4.958,0,0,0,2.163-2.723,10.163,10.163,0,0,1-3.127,1.184A4.92,4.92,0,0,0,11.78,8.288,13.938,13.938,0,0,1,1.64,3.162,4.822,4.822,0,0,0,.974,5.637a4.921,4.921,0,0,0,2.188,4.1A4.9,4.9,0,0,1,.934,9.117v.06A4.923,4.923,0,0,0,4.88,14a5,5,0,0,1-2.212.085,4.936,4.936,0,0,0,4.6,3.417,9.867,9.867,0,0,1-6.1,2.1A10.444,10.444,0,0,1,0,19.544a14,14,0,0,0,7.557,2.209,13.9,13.9,0,0,0,14-13.985c0-.21,0-.42-.015-.63A9.935,9.935,0,0,0,24,4.59Z" transform="translate(0 -2.246)" fill="#fff"/></svg>